name Walk6.mot
datacolumns 19
datarows 17
range 1.27000000 1.35000000
endheader

                time	   L_ground_force_vx	   L_ground_force_vy	   L_ground_force_vz	   L_ground_force_px	   L_ground_force_py	   L_ground_force_pz	   R_ground_force_vx	   R_ground_force_vy	   R_ground_force_vz	   R_ground_force_px	   R_ground_force_py	   R_ground_force_pz	   L_ground_torque_x	   L_ground_torque_y	   L_ground_torque_z	   R_ground_torque_x	   R_ground_torque_y	   R_ground_torque_z	
          1.27000000	         -0.00000000	         -0.00000001	          0.00000000	         -0.00000000	          0.00000000	         -0.00000000	        -21.16157735	        113.37904080	         10.75006096	         -0.11731864	          0.00000000	          0.14191855	          0.00000000	          0.00000000	          0.00000000	          0.00000000	          0.02942463	          0.00000000	
          1.27500000	         -0.00000000	         -0.00000002	          0.00000000	         -0.00000000	          0.00000000	         -0.00000000	        -28.87743951	        158.08719418	         13.77872752	         -0.14574025	          0.00000000	          0.17715569	          0.00000000	          0.00000000	          0.00000000	          0.00000000	          0.07304020	          0.00000000	
          1.28000000	         -0.00000000	         -0.00000002	          0.00000000	         -0.00000000	          0.00000000	         -0.00000000	        -37.38784934	        208.36963905	         16.79931642	         -0.17262302	          0.00000000	          0.21093877	          0.00000000	          0.00000000	          0.00000000	          0.00000000	          0.13215708	          0.00000000	
          1.28500000	          0.00000000	         -0.00000003	          0.00000000	         -0.00000000	          0.00000000	         -0.00000000	        -46.38146877	        261.76792754	         19.42465052	         -0.19610115	          0.00000000	          0.24116413	          0.00000000	          0.00000000	          0.00000000	          0.00000000	          0.20910772	          0.00000000	
          1.29000000	          0.00000000	         -0.00000005	          0.00000001	         -0.00000000	          0.00000000	         -0.00000000	        -55.76776991	        315.69042510	         21.15121677	         -0.21519572	          0.00000000	          0.26678269	          0.00000000	          0.00000000	          0.00000000	          0.00000000	          0.30754892	          0.00000000	
          1.29500000	          0.00000000	         -0.00000006	          0.00000001	         -0.00000000	          0.00000000	         -0.00000000	        -65.66780782	        368.14021575	         21.49093490	         -0.22959467	          0.00000000	          0.28749873	          0.00000000	          0.00000000	          0.00000000	          0.00000000	          0.43306807	          0.00000000	
          1.30000000	          0.00000000	         -0.00000007	          0.00000001	         -0.00000000	          0.00000000	         -0.00000000	        -76.23455426	        417.68500656	         20.10410987	         -0.23944755	          0.00000000	          0.30351645	          0.00000000	          0.00000000	          0.00000000	          0.00000000	          0.59131677	          0.00000000	
          1.30500000	          0.00000001	         -0.00000008	          0.00000001	         -0.00000000	          0.00000000	         -0.00000000	        -87.48314350	        463.30030687	         16.87141597	         -0.24520528	          0.00000000	          0.31533332	          0.00000000	          0.00000000	          0.00000000	          0.00000000	          0.78441304	          0.00000000	
          1.31000000	          0.00000001	         -0.00000009	          0.00000001	         -0.00000000	          0.00000000	         -0.00000000	        -99.19511805	        504.47965493	         11.91293380	         -0.24749971	          0.00000000	          0.32358835	          0.00000000	          0.00000000	          0.00000000	          0.00000000	          1.00770465	          0.00000000	
          1.31500000	          0.00000001	         -0.00000009	          0.00000001	         -0.00000000	          0.00000000	         -0.00000000	       -110.94912884	        541.30782477	          5.56420304	         -0.24705209	          0.00000000	          0.32895824	          0.00000000	          0.00000000	          0.00000000	          0.00000000	          1.24704301	          0.00000000	
          1.32000000	          0.00000002	         -0.00000008	          0.00000001	         -0.00000000	          0.00000000	         -0.00000000	       -122.26019336	        574.28172511	         -1.67673507	         -0.24459796	          0.00000000	          0.33208523	          0.00000000	          0.00000000	          0.00000000	          0.00000000	          1.48017501	          0.00000000	
          1.32500000	          0.00000002	         -0.00000005	          0.00000000	          0.00000000	          0.00000000	          0.00000000	       -132.71048352	        604.03881738	         -9.21747885	         -0.24082472	          0.00000000	          0.33353808	          0.00000000	          0.00000000	          0.00000000	          0.00000000	          1.68246076	          0.00000000	
          1.33000000	          0.00000002	         -0.00000000	         -0.00000001	          0.00000000	          0.00000000	          0.00000000	       -141.99462161	        631.24791661	        -16.46614433	         -0.23632453	          0.00000000	          0.33379831	          0.00000000	          0.00000000	          0.00000000	          0.00000000	          1.83508448	          0.00000000	
          1.33500000	          0.00000002	          0.00000007	         -0.00000002	          0.00000000	          0.00000000	          0.00000000	       -149.90436842	        656.63662259	        -22.93934390	         -0.23157185	          0.00000000	          0.33325738	          0.00000000	          0.00000000	          0.00000000	          0.00000000	          1.93013594	          0.00000000	
          1.34000000	          0.00000002	          0.00000018	         -0.00000004	          0.00000000	          0.00000000	          0.00000000	       -156.30144974	        680.93612736	        -28.31070556	         -0.22692399	          0.00000000	          0.33222409	          0.00000000	         -0.00000000	          0.00000000	          0.00000000	          1.96987017	          0.00000000	
          1.34500000	          0.00000002	          0.00000033	         -0.00000006	          0.00000000	          0.00000000	          0.00000000	       -161.09494747	        704.72392390	        -32.38933664	         -0.22263211	          0.00000000	          0.33093240	          0.00000000	         -0.00000000	          0.00000000	          0.00000000	          1.96238043	          0.00000000	
          1.35000000	          0.00000001	          0.00000053	         -0.00000008	          0.00000000	          0.00000000	          0.00000000	       -164.23445534	        728.31499016	        -35.08489403	         -0.21885166	          0.00000000	          0.32954786	          0.00000000	         -0.00000000	          0.00000000	          0.00000000	          1.91666608	          0.00000000	
